<?xml version="1.0" encoding="UTF-8"?>
<!DOCTYPE svg PUBLIC "-//W3C//DTD SVG 1.1//EN" "http://www.w3.org/Graphics/SVG/1.1/DTD/svg11.dtd">
<svg xmlns="http://www.w3.org/2000/svg" version="1.1" width="250px" height="250px" style="shape-rendering:geometricPrecision; text-rendering:geometricPrecision; image-rendering:optimizeQuality; fill-rule:evenodd; clip-rule:evenodd" xmlns:xlink="http://www.w3.org/1999/xlink">
<g><path style="opacity:1" fill="#000000" d="M -0.5,-0.5 C 82.8333,-0.5 166.167,-0.5 249.5,-0.5C 249.5,82.8333 249.5,166.167 249.5,249.5C 166.167,249.5 82.8333,249.5 -0.5,249.5C -0.5,166.167 -0.5,82.8333 -0.5,-0.5 Z"/></g>
<g><path style="opacity:1" fill="#fafafa" d="M 235.5,110.5 C 235.5,119.167 235.5,127.833 235.5,136.5C 226.983,136.174 218.65,136.507 210.5,137.5C 201.333,166.758 181.667,177.925 151.5,171C 135.071,165.571 124.404,154.571 119.5,138C 102.503,137.5 85.5033,137.333 68.5,137.5C 68.5,147.5 68.5,157.5 68.5,167.5C 82.9602,168.577 96.9602,166.577 110.5,161.5C 110.634,164.467 109.634,167.301 107.5,170C 87.5028,170.5 67.5028,170.667 47.5,170.5C 48.1661,159.513 48.4994,148.513 48.5,137.5C 37.012,136.505 25.3453,136.172 13.5,136.5C 13.5,127.833 13.5,119.167 13.5,110.5C 25.1667,110.5 36.8333,110.5 48.5,110.5C 48.6351,98.815 48.3017,87.1483 47.5,75.5C 54.8333,75.5 62.1667,75.5 69.5,75.5C 68.612,87.1404 68.2787,98.8071 68.5,110.5C 85.5,110.5 102.5,110.5 119.5,110.5C 123.412,91.7512 134.745,79.9179 153.5,75C 178.383,69.7784 196.716,78.2784 208.5,100.5C 202.331,103.001 195.997,105.001 189.5,106.5C 189.041,95.4195 184.708,86.2529 176.5,79C 165.756,74.4777 156.589,76.6443 149,85.5C 143.555,92.9478 140.722,101.281 140.5,110.5C 172.167,110.5 203.833,110.5 235.5,110.5 Z"/></g>
<g><path style="opacity:1" fill="#4b4b4b" d="M 58.5,120.5 C 60.1992,120.34 61.8659,120.506 63.5,121C 59.5,122 59.5,123 63.5,124C 59.5,125 59.5,126 63.5,127C 61.8659,127.494 60.1992,127.66 58.5,127.5C 58.5,125.167 58.5,122.833 58.5,120.5 Z"/></g>
<g><path style="opacity:1" fill="#585858" d="M 73.5,122.5 C 75.1978,119.876 77.0312,119.876 79,122.5C 79.9337,127.083 78.1004,128.583 73.5,127C 72.1991,125.384 72.1991,123.884 73.5,122.5 Z"/></g>
<g><path style="opacity:1" fill="#4f4f4f" d="M 88.5,120.5 C 89.7942,121.29 90.9609,122.29 92,123.5C 92.2492,122.376 92.7492,121.376 93.5,120.5C 94.8333,122.833 94.8333,125.167 93.5,127.5C 92.1076,126.395 90.941,125.061 90,123.5C 89.6667,124.833 89.3333,126.167 89,127.5C 88.5034,125.19 88.3367,122.857 88.5,120.5 Z"/></g>
<g><path style="opacity:1" fill="#686868" d="M 114.5,122.5 C 115.882,120.102 117.549,119.935 119.5,122C 117.866,122.494 116.199,122.66 114.5,122.5 Z"/></g>
<g><path style="opacity:1" fill="#3c3c3c" d="M 132.5,124.5 C 132.611,126.648 131.944,126.981 130.5,125.5C 129.808,126.025 129.308,126.692 129,127.5C 128.503,125.19 128.337,122.857 128.5,120.5C 132.517,119.839 133.851,121.172 132.5,124.5 Z"/></g>
<g><path style="opacity:1" fill="#272727" d="M 142.5,120.5 C 148.324,120.347 148.657,121.013 143.5,122.5C 144.376,123.251 145.376,123.751 146.5,124C 142.735,125.377 143.068,126.377 147.5,127C 145.866,127.494 144.199,127.66 142.5,127.5C 142.5,125.167 142.5,122.833 142.5,120.5 Z"/></g>
<g><path style="opacity:1" fill="#272727" d="M 184.5,120.5 C 190.324,120.347 190.657,121.013 185.5,122.5C 186.376,123.251 187.376,123.751 188.5,124C 184.735,125.377 185.068,126.377 189.5,127C 187.866,127.494 186.199,127.66 184.5,127.5C 184.5,125.167 184.5,122.833 184.5,120.5 Z"/></g>
<g><path style="opacity:1" fill="#f0f0f0" d="M 73.5,122.5 C 74.8333,122.5 76.1667,122.5 77.5,122.5C 77.5,123.833 77.5,125.167 77.5,126.5C 74.5,126.833 73.1667,125.5 73.5,122.5 Z"/></g>
<g><path style="opacity:1" fill="#e1e1e1" d="M 132.5,124.5 C 131.5,124.5 130.5,124.5 129.5,124.5C 130.246,120.69 131.246,120.69 132.5,124.5 Z"/></g>
<g><path style="opacity:1" fill="#404040" d="M 170.5,121.5 C 171.946,120.387 173.613,120.22 175.5,121C 173.926,122.826 173.093,124.993 173,127.5C 172.998,124.949 172.164,122.949 170.5,121.5 Z"/></g>
<g><path style="opacity:1" fill="#5f5f5f" d="M 158.5,120.5 C 160.749,122.331 161.915,124.664 162,127.5C 159.867,126.582 157.7,126.416 155.5,127C 156.914,125.007 157.914,122.84 158.5,120.5 Z"/></g>
<g><path style="opacity:1" fill="#313131" d="M 114.5,122.5 C 114.22,125.388 115.553,126.888 118.5,127C 113.985,127.994 112.651,126.494 114.5,122.5 Z"/></g>
<g><path style="opacity:1" fill="#4a4a4a" d="M 199.5,120.5 C 203.847,120.942 204.18,121.775 200.5,123C 203.124,123.576 203.791,124.91 202.5,127C 201.056,127.781 199.723,127.614 198.5,126.5C 199.397,126.331 200.397,125.998 201.5,125.5C 198.807,124.468 198.14,122.802 199.5,120.5 Z"/></g>
<g><path style="opacity:1" fill="#242424" d="M 46.5,121.5 C 47.4511,122.919 47.7845,124.585 47.5,126.5C 51.1716,127.045 50.8383,127.378 46.5,127.5C 46.5,125.5 46.5,123.5 46.5,121.5 Z"/></g>
<g><path style="opacity:1" fill="#7a7a7a" d="M 13.5,110.5 C 13.5,119.167 13.5,127.833 13.5,136.5C 25.3453,136.172 37.012,136.505 48.5,137.5C 36.5,137.5 24.5,137.5 12.5,137.5C 12.1734,128.318 12.5067,119.318 13.5,110.5 Z"/></g>
<g><path style="opacity:1" fill="#909090" d="M 208.5,137.5 C 185.994,137.169 163.66,137.503 141.5,138.5C 140.957,138.44 140.624,138.107 140.5,137.5C 163.33,136.171 185.996,136.171 208.5,137.5 Z"/></g>
<g><path style="opacity:1" fill="#797979" d="M 235.5,110.5 C 236.493,119.318 236.827,128.318 236.5,137.5C 227.833,137.5 219.167,137.5 210.5,137.5C 218.65,136.507 226.983,136.174 235.5,136.5C 235.5,127.833 235.5,119.167 235.5,110.5 Z"/></g>
<g><path style="opacity:1" fill="#010101" d="M 208.5,137.5 C 199.322,164.089 181.656,172.256 155.5,162C 148.14,155.782 143.474,147.949 141.5,138.5C 163.66,137.503 185.994,137.169 208.5,137.5 Z"/></g>
<g><path style="opacity:1" fill="#dddddd" d="M 106.5,179.5 C 108.193,180.475 109.693,181.808 111,183.5C 111.333,182.167 111.667,180.833 112,179.5C 113.159,186.576 111.826,187.576 108,182.5C 107.667,183.833 107.333,185.167 107,186.5C 106.503,184.19 106.337,181.857 106.5,179.5 Z"/></g>
<g><path style="opacity:1" fill="#a4a4a4" d="M 121.5,179.5 C 123.308,180.918 123.975,182.918 123.5,185.5C 124.552,185.351 125.552,185.517 126.5,186C 124.866,186.494 123.199,186.66 121.5,186.5C 121.5,184.167 121.5,181.833 121.5,179.5 Z"/></g>
<g><path style="opacity:1" fill="#bababa" d="M 145.5,179.5 C 146.794,180.29 147.961,181.29 149,182.5C 149.249,181.376 149.749,180.376 150.5,179.5C 151.833,181.833 151.833,184.167 150.5,186.5C 149.108,185.395 147.941,184.061 147,182.5C 146.667,183.833 146.333,185.167 146,186.5C 145.503,184.19 145.337,181.857 145.5,179.5 Z"/></g>
<g><path style="opacity:1" fill="#dedede" d="M 160.5,179.5 C 166.324,179.347 166.657,180.013 161.5,181.5C 162.729,182.281 164.062,182.781 165.5,183C 160.167,184 160.167,185 165.5,186C 163.866,186.494 162.199,186.66 160.5,186.5C 160.5,184.167 160.5,181.833 160.5,179.5 Z"/></g>
<g><path style="opacity:1" fill="#acacac" d="M 92.5,179.5 C 96.9346,179.752 98.268,181.919 96.5,186C 90.3389,186.878 89.0055,184.711 92.5,179.5 Z"/></g>
<g><path style="opacity:1" fill="#101010" d="M 92.5,181.5 C 94.3464,181.222 95.6798,181.889 96.5,183.5C 95.6798,185.111 94.3464,185.778 92.5,185.5C 92.5,184.167 92.5,182.833 92.5,181.5 Z"/></g>
</svg>
